M48
METRIC,LZ,000.000
;FILE_FORMAT=3:3
;TYPE=PLATED
;Layer: PTH_Through
;EasyEDA v6.5.48, 2025-03-28 08:07:08
;329a1df1ed9a4316b028ac477401dd29,d846faf264e3498a955800aa56c0118d,10
;Gerber Generator version 0.2
;Holesize 1 = 0.600 mm
T01C0.600
;Holesize 2 = 0.800 mm
T02C0.800
;Holesize 3 = 0.901 mm
T03C0.901
;Holesize 4 = 0.915 mm
T04C0.915
;Holesize 5 = 1.000 mm
T05C1.000
;Holesize 6 = 1.200 mm
T06C1.200
;Holesize 7 = 1.600 mm
T07C1.600
%
G05
G90
T01
X038566Y026621G85X039666Y026621
X038566Y004621G85X039666Y004621
T02
X038028Y-004318
X035378Y-009398
T03
X053721Y011811
X056261Y027051
X061342Y027051
X066422Y027051
X071502Y027051
X076582Y027051
X081662Y027051
X086742Y027051
X089281Y011811
X084200Y011811
X079120Y011811
X074040Y011811
X068960Y011811
X063880Y011811
X058801Y011811
X056261Y011811
X061341Y011811
X066421Y011811
X071501Y011811
X076581Y011811
X081661Y011811
X086741Y011811
X089281Y027051
X084201Y027051
X079121Y027051
X074041Y027051
X068961Y027051
X063881Y027051
X058801Y027051
X053721Y027051
X061437Y037719G85X060737Y037719
X058897Y037719G85X058197Y037719
X056357Y037719G85X055657Y037719
T04
X048811Y038481
X038311Y038481
X038311Y034163
X048811Y034163
X064686Y001397
X054186Y001397
X064686Y005080
X054186Y005080
T05
X087122Y035931
X050673Y001905
X047879Y001905
X047879Y004699
X050673Y004699
X089916Y035941
X061976Y-008608
X061976Y-005108
T06
X095378Y-008252
X092836Y-008255
X095376Y-005715
X092836Y-005715
X095376Y-003175
X092836Y-003175
X095376Y-000635
X092836Y-000635
T07
X071287Y037084
X076287Y037084
X053320Y-007366
X048320Y-007366
X043200Y-007366
M30
