G04 Layer: BottomLayer*
G04 EasyEDA v6.5.48, 2025-03-28 08:07:08*
G04 329a1df1ed9a4316b028ac477401dd29,d846faf264e3498a955800aa56c0118d,10*
G04 Gerber Generator version 0.2*
G04 Scale: 100 percent, Rotated: No, Reflected: No *
G04 Dimensions in millimeters *
G04 leading zeros omitted , absolute positions ,4 integer and 5 decimal *
%FSLAX45Y45*%
%MOMM*%

%ADD10C,0.5000*%
%ADD11R,2.0000X2.0000*%
%ADD12C,1.8000*%
%ADD13C,1.6000*%
%ADD14R,1.6000X1.6000*%
%ADD15C,2.5000*%
%ADD16O,2.1999956000000003X1.3500100000000002*%
%ADD17O,2.1999956000000003X0.9999979999999999*%
%ADD18C,1.4000*%

%LPD*%
D10*
X3911600Y423926D02*
G01*
X3606800Y728726D01*
X3606800Y4229100D01*
X3784600Y4406900D01*
X8229600Y4406900D01*
X4832095Y-736600D02*
G01*
X4832095Y-876300D01*
X5308600Y-1397000D01*
X9359900Y-1397000D01*
X9842500Y-914400D01*
X9842500Y2590800D01*
X9182100Y3251200D01*
X6451600Y3251200D01*
X6134100Y2933700D01*
X6134100Y2705100D01*
X7128763Y3708400D02*
G01*
X7128763Y3691636D01*
X7366000Y3454400D01*
X7785100Y3454400D01*
X8051800Y3721100D01*
X8051800Y4114800D01*
X7861300Y4305300D01*
X3810000Y4305300D01*
X3695700Y4191000D01*
X3695700Y2839973D01*
X3911600Y2624073D01*
X6134100Y1181100D02*
G01*
X5803900Y850900D01*
X4978400Y850900D01*
X4546600Y1282700D01*
X4546600Y2832100D01*
X4881118Y3166618D01*
X4881118Y3259581D01*
X5692393Y-419100D02*
G01*
X4586731Y-419100D01*
X4269231Y-736600D01*
X3537711Y-939800D02*
G01*
X3639311Y-1041400D01*
X4584700Y-1041400D01*
X4832019Y-736600D01*
X4832019Y-736600D01*
X4832095Y-736600D01*
X6197600Y-510794D02*
G01*
X6512306Y-825500D01*
X9283700Y-825500D01*
X4881118Y3166618D02*
G01*
X5114036Y2933700D01*
X5511800Y2933700D01*
X5626100Y2819400D01*
X5626100Y2705100D01*
X7628699Y3708400D02*
G01*
X7260399Y4076700D01*
X6146800Y4076700D01*
X5854700Y3784600D01*
X5854700Y3771900D01*
X6108700Y3771900D02*
G01*
X6108700Y3708400D01*
X5803900Y3403600D01*
X4893818Y3403600D01*
X4881118Y3416300D01*
X8991600Y3987800D02*
G01*
X8572500Y4406900D01*
X8229600Y4406900D01*
X5575300Y850900D02*
G01*
X5575300Y-302005D01*
X5692393Y-419100D01*
X6197600Y-860805D02*
G01*
X6603494Y-1266700D01*
X6678500Y-1266700D01*
X5692391Y-419100D02*
G01*
X6134097Y-860805D01*
X6197600Y-860805D01*
X8991600Y3886200D02*
G01*
X8991600Y3594100D01*
X8991600Y3886200D02*
G01*
X8991600Y3987800D01*
X4787900Y469900D02*
G01*
X4787900Y170594D01*
X4787900Y190500D02*
G01*
X4787900Y469900D01*
X4787902Y469902D02*
G01*
X5168900Y850900D01*
X5212674Y850900D01*
X3802811Y-431800D02*
G01*
X4107611Y-736600D01*
X4269196Y-736600D01*
X9537827Y-926845D02*
G01*
X9537827Y-990472D01*
X9258300Y-1270000D01*
X6678498Y-1266697D01*
X4881118Y3416300D02*
G01*
X4881118Y3259581D01*
X8674100Y2705100D02*
G01*
X8674100Y2857500D01*
X8813800Y2997200D01*
X8953500Y2997200D01*
X9105900Y2844800D01*
X9105900Y-660400D01*
X9283700Y-838200D01*
D11*
G01*
X8712200Y3593084D03*
G01*
X5067300Y190500D03*
G01*
X4787900Y190500D03*
G01*
X4787900Y469900D03*
G01*
X5067300Y469900D03*
G01*
X8991600Y3594100D03*
D12*
G01*
X9537827Y-825245D03*
G01*
X9283572Y-825500D03*
G01*
X9537572Y-571500D03*
G01*
X9283572Y-571500D03*
G01*
X9537572Y-317500D03*
G01*
X9283572Y-317500D03*
G01*
X9537572Y-63500D03*
G01*
X9283572Y-63500D03*
D13*
G01*
X4881118Y3848100D03*
G01*
X3831107Y3848100D03*
G01*
X3831107Y3416300D03*
G01*
X4881118Y3416300D03*
G01*
X6468618Y139700D03*
G01*
X5418607Y139700D03*
G01*
X6468618Y508000D03*
G01*
X5418607Y508000D03*
D14*
G01*
X5372100Y1181100D03*
D13*
G01*
X5626100Y2705100D03*
G01*
X6134100Y2705100D03*
G01*
X6642100Y2705100D03*
G01*
X7150100Y2705100D03*
G01*
X7658100Y2705100D03*
G01*
X8166100Y2705100D03*
G01*
X8674100Y2705100D03*
G01*
X8928100Y1181100D03*
G01*
X8420100Y1181100D03*
G01*
X7912100Y1181100D03*
G01*
X7404100Y1181100D03*
G01*
X6896100Y1181100D03*
G01*
X6388100Y1181100D03*
G01*
X5880100Y1181100D03*
G01*
X5626100Y1181100D03*
G01*
X6134100Y1181100D03*
G01*
X6642100Y1181100D03*
G01*
X7150100Y1181100D03*
G01*
X7658100Y1181100D03*
G01*
X8166100Y1181100D03*
G01*
X8674100Y1181100D03*
G01*
X8928100Y2705100D03*
G01*
X8420100Y2705100D03*
G01*
X7912100Y2705100D03*
G01*
X7404100Y2705100D03*
G01*
X6896100Y2705100D03*
G01*
X6388100Y2705100D03*
G01*
X5880100Y2705100D03*
D14*
G01*
X5372100Y2705100D03*
D15*
G01*
X7128713Y3708400D03*
G01*
X7628712Y3708400D03*
G01*
X5332018Y-736600D03*
G01*
X4832019Y-736600D03*
G01*
X4319981Y-736600D03*
D16*
G01*
X6108700Y3771900D03*
G01*
X5854700Y3771900D03*
G01*
X5600700Y3771900D03*
D17*
G01*
X3911600Y2662097D03*
G01*
X3911600Y462102D03*
D18*
G01*
X3802811Y-431800D03*
G01*
X3537788Y-939800D03*
D13*
G01*
X6197600Y-860805D03*
G01*
X6197600Y-510794D03*
M02*
