G04 Layer: TopLayer*
G04 EasyEDA v6.5.48, 2025-03-28 08:07:08*
G04 329a1df1ed9a4316b028ac477401dd29,d846faf264e3498a955800aa56c0118d,10*
G04 Gerber Generator version 0.2*
G04 Scale: 100 percent, Rotated: No, Reflected: No *
G04 Dimensions in millimeters *
G04 leading zeros omitted , absolute positions ,4 integer and 5 decimal *
%FSLAX45Y45*%
%MOMM*%

%ADD10C,0.2540*%
%ADD11C,0.5000*%
%ADD12R,2.0000X2.0000*%
%ADD13C,1.8000*%
%ADD14C,1.6000*%
%ADD15R,1.6000X1.6000*%
%ADD16C,2.5000*%
%ADD17O,2.1999956000000003X1.3500100000000002*%
%ADD18O,2.1999956000000003X0.9999979999999999*%
%ADD19C,1.4000*%

%LPD*%
D10*
X6781800Y1473200D02*
G01*
X6642100Y1333500D01*
X6642100Y1181100D01*
X6781800Y1473200D02*
G01*
X8585200Y1473200D01*
X8801100Y1257300D01*
X8801100Y406400D01*
X9283700Y-76200D01*
D11*
X8674100Y1181100D02*
G01*
X8674354Y291592D01*
X5281168Y-736600D02*
G01*
X5334000Y-736600D01*
X5334000Y-431800D01*
X6159500Y393700D01*
X3831081Y3416300D02*
G01*
X4648200Y3416300D01*
X4991100Y3073400D01*
X7569200Y3073400D01*
X5143500Y2705100D02*
G01*
X5372100Y2705100D01*
X5600700Y3771900D02*
G01*
X5524500Y3848100D01*
X4881105Y3848100D01*
X8369300Y3694684D02*
G01*
X7860284Y4203700D01*
X5867400Y4203700D01*
X5600700Y3937000D01*
X5600700Y3771900D01*
X3831097Y3848100D02*
G01*
X3831107Y3848089D01*
X3831107Y3416300D01*
X9537700Y-317500D02*
G01*
X9740900Y-114300D01*
X8470900Y3594100D02*
G01*
X8724900Y3594100D01*
X8369300Y3694684D02*
G01*
X8469884Y3594100D01*
X8496106Y3594100D01*
X5067302Y469902D02*
G01*
X5105400Y508000D01*
X5418594Y508000D01*
X5067302Y190502D02*
G01*
X5118105Y139700D01*
X5418594Y139700D01*
X6388100Y1181100D02*
G01*
X6159500Y952500D01*
X6159500Y393700D01*
X8928100Y1181100D02*
G01*
X8930131Y544068D01*
X9537700Y-63500D02*
G01*
X8928100Y546100D01*
X9283572Y-317500D02*
G01*
X8674354Y291592D01*
X7912100Y1181100D02*
G01*
X7892557Y1161557D01*
X7892557Y603742D01*
X9283572Y-571500D02*
G01*
X9067800Y-571500D01*
X7892557Y603742D01*
X6477000Y139700D02*
G01*
X7183894Y846594D01*
X7404100Y1181100D02*
G01*
X7404100Y1066800D01*
X7173615Y836315D01*
X7162800Y825500D01*
X6468605Y508000D02*
G01*
X7141705Y1181100D01*
X7150100Y1181100D01*
X7658100Y1181100D02*
G01*
X7656322Y128778D01*
X9537700Y-571500D02*
G01*
X9728200Y-736600D01*
X9728200Y-1130300D01*
X9639300Y-1219200D01*
X9004300Y-1219200D01*
X7656322Y128778D01*
X9753600Y1651000D02*
G01*
X9740900Y-114300D01*
X8928100Y2705100D02*
G01*
X9753600Y1879600D01*
X9753600Y1651000D01*
X7569200Y3073400D02*
G01*
X7797800Y3073400D01*
X8166100Y2705100D01*
X5143500Y2705100D02*
G01*
X4686300Y3162300D01*
X3835400Y3162300D01*
X3632200Y3365500D01*
X3632200Y3898900D01*
X3835400Y4102100D01*
X4737100Y4102100D01*
X4881102Y3958097D01*
X4881102Y3848100D01*
D12*
G01*
X8712200Y3593084D03*
G01*
X5067300Y190500D03*
G01*
X4787900Y190500D03*
G01*
X4787900Y469900D03*
G01*
X5067300Y469900D03*
G01*
X8991600Y3594100D03*
D13*
G01*
X9537827Y-825245D03*
G01*
X9283572Y-825500D03*
G01*
X9537572Y-571500D03*
G01*
X9283572Y-571500D03*
G01*
X9537572Y-317500D03*
G01*
X9283572Y-317500D03*
G01*
X9537572Y-63500D03*
G01*
X9283572Y-63500D03*
D14*
G01*
X4881118Y3848100D03*
G01*
X3831107Y3848100D03*
G01*
X3831107Y3416300D03*
G01*
X4881118Y3416300D03*
G01*
X6468618Y139700D03*
G01*
X5418607Y139700D03*
G01*
X6468618Y508000D03*
G01*
X5418607Y508000D03*
D15*
G01*
X5372100Y1181100D03*
D14*
G01*
X5626100Y2705100D03*
G01*
X6134100Y2705100D03*
G01*
X6642100Y2705100D03*
G01*
X7150100Y2705100D03*
G01*
X7658100Y2705100D03*
G01*
X8166100Y2705100D03*
G01*
X8674100Y2705100D03*
G01*
X8928100Y1181100D03*
G01*
X8420100Y1181100D03*
G01*
X7912100Y1181100D03*
G01*
X7404100Y1181100D03*
G01*
X6896100Y1181100D03*
G01*
X6388100Y1181100D03*
G01*
X5880100Y1181100D03*
G01*
X5626100Y1181100D03*
G01*
X6134100Y1181100D03*
G01*
X6642100Y1181100D03*
G01*
X7150100Y1181100D03*
G01*
X7658100Y1181100D03*
G01*
X8166100Y1181100D03*
G01*
X8674100Y1181100D03*
G01*
X8928100Y2705100D03*
G01*
X8420100Y2705100D03*
G01*
X7912100Y2705100D03*
G01*
X7404100Y2705100D03*
G01*
X6896100Y2705100D03*
G01*
X6388100Y2705100D03*
G01*
X5880100Y2705100D03*
D15*
G01*
X5372100Y2705100D03*
D16*
G01*
X7128713Y3708400D03*
G01*
X7628712Y3708400D03*
G01*
X5332018Y-736600D03*
G01*
X4832019Y-736600D03*
G01*
X4319981Y-736600D03*
D17*
G01*
X6108700Y3771900D03*
G01*
X5854700Y3771900D03*
G01*
X5600700Y3771900D03*
D18*
G01*
X3911600Y2662097D03*
G01*
X3911600Y462102D03*
D19*
G01*
X3802811Y-431800D03*
G01*
X3537788Y-939800D03*
D14*
G01*
X6197600Y-860805D03*
G01*
X6197600Y-510794D03*
M02*
