G04 Layer: BottomSolderMaskLayer*
G04 EasyEDA v6.5.48, 2025-03-28 08:07:08*
G04 329a1df1ed9a4316b028ac477401dd29,d846faf264e3498a955800aa56c0118d,10*
G04 Gerber Generator version 0.2*
G04 Scale: 100 percent, Rotated: No, Reflected: No *
G04 Dimensions in millimeters *
G04 leading zeros omitted , absolute positions ,4 integer and 5 decimal *
%FSLAX45Y45*%
%MOMM*%

%AMMACRO1*4,1,8,-1.0211,-1.0508,-1.0508,-1.0208,-1.0508,1.0211,-1.0211,1.0508,1.0208,1.0508,1.0508,1.0211,1.0508,-1.0208,1.0208,-1.0508,-1.0211,-1.0508,0*%
%AMMACRO2*4,1,8,-0.8212,-0.8509,-0.8509,-0.8209,-0.8509,0.8212,-0.8212,0.8509,0.8209,0.8509,0.8509,0.8212,0.8509,-0.8209,0.8209,-0.8509,-0.8212,-0.8509,0*%
%ADD10MACRO1*%
%ADD11C,1.9016*%
%ADD12C,1.7016*%
%ADD13MACRO2*%
%ADD14C,2.6016*%
%ADD15O,2.3015956X1.4516100000000003*%
%ADD16O,2.2999954000000002X1.0999978000000001*%
%ADD17C,1.5016*%

%LPD*%
D10*
G01*
X8712200Y3593084D03*
G01*
X5067300Y190500D03*
G01*
X4787900Y190500D03*
G01*
X4787900Y469900D03*
G01*
X5067300Y469900D03*
G01*
X8991600Y3594100D03*
D11*
G01*
X9537827Y-825245D03*
G01*
X9283572Y-825500D03*
G01*
X9537572Y-571500D03*
G01*
X9283572Y-571500D03*
G01*
X9537572Y-317500D03*
G01*
X9283572Y-317500D03*
G01*
X9537572Y-63500D03*
G01*
X9283572Y-63500D03*
D12*
G01*
X4881118Y3848100D03*
G01*
X3831107Y3848100D03*
G01*
X3831107Y3416300D03*
G01*
X4881118Y3416300D03*
G01*
X6468618Y139700D03*
G01*
X5418607Y139700D03*
G01*
X6468618Y508000D03*
G01*
X5418607Y508000D03*
D13*
G01*
X5372100Y1181100D03*
D12*
G01*
X5626100Y2705100D03*
G01*
X6134100Y2705100D03*
G01*
X6642100Y2705100D03*
G01*
X7150100Y2705100D03*
G01*
X7658100Y2705100D03*
G01*
X8166100Y2705100D03*
G01*
X8674100Y2705100D03*
G01*
X8928100Y1181100D03*
G01*
X8420100Y1181100D03*
G01*
X7912100Y1181100D03*
G01*
X7404100Y1181100D03*
G01*
X6896100Y1181100D03*
G01*
X6388100Y1181100D03*
G01*
X5880100Y1181100D03*
G01*
X5626100Y1181100D03*
G01*
X6134100Y1181100D03*
G01*
X6642100Y1181100D03*
G01*
X7150100Y1181100D03*
G01*
X7658100Y1181100D03*
G01*
X8166100Y1181100D03*
G01*
X8674100Y1181100D03*
G01*
X8928100Y2705100D03*
G01*
X8420100Y2705100D03*
G01*
X7912100Y2705100D03*
G01*
X7404100Y2705100D03*
G01*
X6896100Y2705100D03*
G01*
X6388100Y2705100D03*
G01*
X5880100Y2705100D03*
D13*
G01*
X5372100Y2705100D03*
D14*
G01*
X7128713Y3708400D03*
G01*
X7628712Y3708400D03*
G01*
X5332018Y-736600D03*
G01*
X4832019Y-736600D03*
G01*
X4319981Y-736600D03*
D15*
G01*
X6108700Y3771900D03*
G01*
X5854700Y3771900D03*
G01*
X5600700Y3771900D03*
D16*
G01*
X3911600Y2662097D03*
G01*
X3911600Y462102D03*
D17*
G01*
X3802811Y-431800D03*
G01*
X3537788Y-939800D03*
D12*
G01*
X6197600Y-860805D03*
G01*
X6197600Y-510794D03*
M02*
