<?xml version="1.0" encoding="UTF-8" standalone="no"?>
<!-- Created with Inkscape (http://www.inkscape.org/) -->

<svg
   width="93.601891mm"
   height="89.899155mm"
   viewBox="0 0 93.601891 89.899155"
   version="1.1"
   id="svg1"
   xml:space="preserve"
   inkscape:export-filename="bitmap.svg"
   inkscape:export-xdpi="96"
   inkscape:export-ydpi="96"
   xmlns:inkscape="http://www.inkscape.org/namespaces/inkscape"
   xmlns:sodipodi="http://sodipodi.sourceforge.net/DTD/sodipodi-0.dtd"
   xmlns="http://www.w3.org/2000/svg"
   xmlns:svg="http://www.w3.org/2000/svg"><sodipodi:namedview
     id="namedview1"
     pagecolor="#505050"
     bordercolor="#eeeeee"
     borderopacity="1"
     inkscape:showpageshadow="0"
     inkscape:pageopacity="0"
     inkscape:pagecheckerboard="0"
     inkscape:deskcolor="#505050"
     inkscape:document-units="mm" /><defs
     id="defs1" /><g
     inkscape:label="Layer 1"
     inkscape:groupmode="layer"
     id="layer1"
     transform="translate(-53.332956,-79.620794)"><path
       style="fill:#808080"
       d="M 78.832206,167.61731 C 76.793683,161.96129 53.279135,94.575612 53.33305,94.544332 c 0.981862,-0.56956 4.027898,-1.69481 4.167602,-1.53957 0.105952,0.11774 2.780047,6.82204 5.942432,14.898448 3.162386,8.0764 9.607357,24.527 14.322158,36.55688 9.975815,25.45343 9.052525,22.17325 6.521845,23.17019 -1.12779,0.44427 -2.662211,1.0512 -3.40983,1.34872 l -1.359308,0.54095 z m 3.840351,-18.25133 c -0.28605,-0.75812 -2.841712,-7.27199 -5.679243,-14.47527 C 57.943152,86.530472 59.60204,93.792372 66.569755,89.260822 c 7.89395,-5.13394 17.634042,-7.82138 28.314228,-7.81231 l 4.28592,0.004 9.225587,20.832298 c 5.07407,11.45776 9.32898,20.94383 9.45536,21.08016 0.36202,0.39051 7.39722,-2.14311 8.21128,-2.95717 0.12134,-0.12134 -1.02797,-3.66613 -2.55403,-7.87731 -1.52606,-4.21118 -2.77466,-7.73382 -2.77466,-7.82809 0,-0.0943 0.98227,-0.55792 2.18282,-1.03032 3.21583,-1.26539 8.46502,-4.337868 10.23847,-5.992828 0.0818,-0.0764 -4.48549,-11.81016 -5.16101,-13.25909 -0.0174,-0.0373 -1.13702,0.59863 -2.48808,1.41313 -2.63896,1.5909 -5.62187,2.95386 -8.11474,3.7078 -0.85373,0.25821 -1.6464,0.54737 -1.76148,0.6426 -0.11507,0.0952 0.92672,3.28716 2.31511,7.09321 1.38838,3.806038 2.52433,7.019738 2.52433,7.141558 0,0.28994 -5.2606,1.93463 -6.35983,1.98834 l -0.85031,0.0416 -2.3504,-8.706858 c -1.29271,-4.78878 -2.31957,-8.72755 -2.2819,-8.75284 0.0377,-0.0253 1.6163,-0.43627 3.50807,-0.91328 6.63381,-1.67272 11.88495,-4.1277 15.63646,-7.31025 l 1.34896,-1.14438 2.80335,7.06381 c 1.54184,3.88509 5.5502,14.008158 8.90746,22.495708 l 6.10412,15.43191 -0.58171,0.83997 c -9.12202,13.17167 -36.44554,21.48949 -41.13962,12.52371 l -0.39354,-0.75166 0.48226,-0.54074 c 5.83887,-6.54704 13.66158,-7.00396 10.39009,-0.60688 -1.28272,2.50821 -0.7794,2.19101 1.67122,-1.05322 12.2408,-16.20491 -17.622867,-3.44429 -32.638083,13.94611 l -1.53281,1.77528 z m 51.289433,-16.85615 c 3.67257,-2.20728 7.49586,-5.24947 9.02719,-7.18293 l 0.83404,-1.05306 -2.32805,-5.94768 c -2.74028,-7.00081 -2.36586,-6.60094 -4.42803,-4.72909 -2.08908,1.89627 -5.1963,3.96238 -8.32199,5.53362 l -2.43933,1.22621 0.88491,2.43826 c 0.48671,1.34104 1.58441,4.37116 2.43934,6.7336 1.78028,4.91949 1.46625,4.70339 4.33192,2.98107 z m -25.79625,-4.77225 c 2.03729,-1.00153 4.41537,-2.05448 5.28463,-2.33989 0.86925,-0.28541 1.61441,-0.62078 1.6559,-0.74526 0.0844,-0.25317 -4.85952,-11.45968 -5.2138,-11.81828 -0.50943,-0.51564 -9.08267,1.79464 -14.261807,3.84322 -2.38075,0.94168 -1.61432,1.97437 -5.885896,-7.9306 l -3.61572,-8.38419 -0.49103,0.0854 c -1.89145,0.32916 -11.830353,6.06434 -14.608018,8.42948 l -0.887816,0.75596 3.320796,8.6576 c 1.826438,4.76168 3.422592,8.8395 3.547009,9.06182 l 0.226213,0.40422 1.57414,-1.23564 c 3.254006,-2.55429 13.613692,-8.8345 14.560232,-8.82667 0.1337,0.001 1.36763,2.70978 2.74208,6.01927 1.37444,3.3095 2.77062,6.6394 3.10262,7.39978 l 0.60363,1.38253 2.321337,-1.46892 c 1.27673,-0.80791 3.9882,-2.28835 6.0255,-3.28988 z M 92.330683,98.243132 c 1.91374,-0.4834 5.00937,-1.08683 6.87917,-1.34098 1.869797,-0.25414 3.447157,-0.50017 3.505257,-0.54672 0.0581,-0.0465 -1.13254,-2.7798 -2.64584,-6.07388 l -2.751447,-5.98923 -5.027091,0.13687 c -4.982565,0.13565 -6.536325,0.31816 -9.988025,1.1732 -2.173932,0.53852 -2.259501,-0.30176 0.71697,7.04051 1.3766,3.39574 2.62362,6.49157 2.77116,6.87962 l 0.26824,0.705538 1.39604,-0.553018 c 0.76782,-0.30416 2.96182,-0.94852 4.875566,-1.43191 z"
       id="path1" /></g></svg>
